<mxfile host="app.diagrams.net" modified="2023-10-31T07:44:35.363Z" agent="Mozilla/5.0 (Windows NT 10.0; Win64; x64) AppleWebKit/537.36 (KHTML, like Gecko) Chrome/118.0.0.0 Safari/537.36" etag="5sQ6g5W4QqRSfu-lStpu" version="22.0.8" type="github">
  <diagram name="Page-1" id="6stjd0rLlLMC0dgkhvGz">
    <mxGraphModel dx="1173" dy="642" grid="1" gridSize="10" guides="1" tooltips="1" connect="1" arrows="1" fold="1" page="1" pageScale="1" pageWidth="850" pageHeight="1100" math="0" shadow="0">
      <root>
        <mxCell id="0" />
        <mxCell id="1" parent="0" />
        <mxCell id="C9U8APSl277um6p8lGCJ-1" value="" style="whiteSpace=wrap;html=1;aspect=fixed;" vertex="1" parent="1">
          <mxGeometry x="98" y="90" width="260" height="260" as="geometry" />
        </mxCell>
        <mxCell id="C9U8APSl277um6p8lGCJ-3" value="" style="endArrow=none;html=1;rounded=0;exitX=-0.006;exitY=0.168;exitDx=0;exitDy=0;exitPerimeter=0;entryX=0.999;entryY=0.171;entryDx=0;entryDy=0;entryPerimeter=0;" edge="1" parent="1" source="C9U8APSl277um6p8lGCJ-1" target="C9U8APSl277um6p8lGCJ-1">
          <mxGeometry width="50" height="50" relative="1" as="geometry">
            <mxPoint x="250" y="260" as="sourcePoint" />
            <mxPoint x="300" y="210" as="targetPoint" />
          </mxGeometry>
        </mxCell>
        <mxCell id="C9U8APSl277um6p8lGCJ-4" value="&lt;span style=&quot;font-size: 20px;&quot;&gt;Pemain&lt;/span&gt;" style="text;html=1;strokeColor=none;fillColor=none;align=center;verticalAlign=middle;whiteSpace=wrap;rounded=0;strokeWidth=2;" vertex="1" parent="1">
          <mxGeometry x="195" y="97" width="60" height="30" as="geometry" />
        </mxCell>
        <mxCell id="C9U8APSl277um6p8lGCJ-5" value="" style="endArrow=none;html=1;rounded=0;exitX=-0.003;exitY=0.556;exitDx=0;exitDy=0;entryX=1.001;entryY=0.548;entryDx=0;entryDy=0;exitPerimeter=0;entryPerimeter=0;" edge="1" parent="1" source="C9U8APSl277um6p8lGCJ-1" target="C9U8APSl277um6p8lGCJ-1">
          <mxGeometry width="50" height="50" relative="1" as="geometry">
            <mxPoint x="250" y="260" as="sourcePoint" />
            <mxPoint x="300" y="210" as="targetPoint" />
          </mxGeometry>
        </mxCell>
        <mxCell id="C9U8APSl277um6p8lGCJ-7" value="&lt;p style=&quot;line-height: 30%; font-size: 15px;&quot;&gt;&lt;font style=&quot;font-size: 15px;&quot;&gt;&lt;b&gt;- gambar : varchar&lt;/b&gt;&lt;/font&gt;&lt;/p&gt;&lt;p style=&quot;line-height: 30%; font-size: 15px;&quot;&gt;&lt;font style=&quot;font-size: 15px;&quot;&gt;&lt;b&gt;- sumbu x : int;&lt;/b&gt;&lt;/font&gt;&lt;/p&gt;&lt;p style=&quot;line-height: 30%; font-size: 15px;&quot;&gt;&lt;font style=&quot;font-size: 15px;&quot;&gt;&lt;b&gt;- sumbu y : int;&lt;/b&gt;&lt;/font&gt;&lt;/p&gt;&lt;p style=&quot;line-height: 30%; font-size: 15px;&quot;&gt;&lt;font style=&quot;font-size: 15px;&quot;&gt;&lt;b&gt;- speed : int;&lt;/b&gt;&lt;/font&gt;&lt;/p&gt;" style="text;html=1;strokeColor=none;fillColor=none;align=left;verticalAlign=middle;whiteSpace=wrap;rounded=0;" vertex="1" parent="1">
          <mxGeometry x="106" y="159" width="140" height="30" as="geometry" />
        </mxCell>
        <mxCell id="C9U8APSl277um6p8lGCJ-8" value="&lt;p style=&quot;line-height: 30%; font-size: 15px;&quot;&gt;&lt;b&gt;+ tampilkan()&lt;/b&gt;&lt;/p&gt;&lt;p style=&quot;line-height: 30%; font-size: 15px;&quot;&gt;&lt;b style=&quot;background-color: initial;&quot;&gt;+ maju()&lt;/b&gt;&lt;/p&gt;&lt;p style=&quot;line-height: 30%; font-size: 15px;&quot;&gt;&lt;b&gt;+ finish()&lt;/b&gt;&lt;/p&gt;" style="text;html=1;strokeColor=none;fillColor=none;align=left;verticalAlign=middle;whiteSpace=wrap;rounded=0;" vertex="1" parent="1">
          <mxGeometry x="104" y="245" width="140" height="30" as="geometry" />
        </mxCell>
      </root>
    </mxGraphModel>
  </diagram>
</mxfile>
